<svg xmlns="http://www.w3.org/2000/svg" viewBox="0 0 541.13 251.21"><defs><style>.cls-1{isolation:isolate;}.cls-2,.cls-7{fill:#ffd725;}.cls-3{fill:#f9df6f;}.cls-25,.cls-4{fill:#fff;}.cls-5{fill:#ec6265;}.cls-6{fill:#626161;}.cls-6,.cls-7{opacity:0.4;mix-blend-mode:multiply;}.cls-8{fill:#bfbebf;}.cls-9{fill:#39af76;}.cls-10{fill:#1a9460;}.cls-11{fill:#ef7e81;}.cls-12{fill:#fee261;}.cls-13{fill:#6fb9e7;}.cls-14{fill:#458ccb;}.cls-15{fill:#070708;}.cls-16{fill:#d3d3d3;}.cls-17{fill:#111;}.cls-18,.cls-23{fill:#fecf5a;}.cls-18{stroke:#010101;}.cls-18,.cls-22,.cls-27{stroke-miterlimit:10;}.cls-19{fill:#9a6c54;}.cls-20{fill:#010101;}.cls-21{fill:#0e0f1e;}.cls-22{fill:#2dabe3;stroke:#2dabe3;stroke-width:0.5px;}.cls-24{fill:#5e5d5f;}.cls-25{opacity:0.53;}.cls-26{fill:#858585;}.cls-27{fill:#9f9e9d;stroke:#9f9e9d;stroke-width:0.25px;opacity:0.59;}.cls-28{fill:#f9b45c;}</style></defs><title>icon 1</title><g class="cls-1"><g id="Layer_1" data-name="Layer 1"><path class="cls-2" d="M412.8,428.6A29,29,0,0,1,426,419.47c10.12-3.16,14.57-10.84,19.64-7.55s-.11,10.48,1.13,21a29,29,0,0,1-2.94,15.79,3.31,3.31,0,0,1-4.77,1.32l-12.76-8.27-12.76-8.27A3.31,3.31,0,0,1,412.8,428.6Z" transform="translate(-28.78 -357.09)"/><path class="cls-3" d="M412.8,428.6A29,29,0,0,1,426,419.47c10.12-3.16,14.57-10.84,19.64-7.55a4.63,4.63,0,0,1,1.72,1.88c-4.23-.14-8.73,5.7-17.22,8.35a29,29,0,0,0-13.21,9.13,3.31,3.31,0,0,0,.74,4.9l-4.13-2.68A3.31,3.31,0,0,1,412.8,428.6Z" transform="translate(-28.78 -357.09)"/><rect class="cls-2" x="494.26" y="448.04" width="3.29" height="70.59" transform="translate(751.17 757.81) rotate(-158.48)"/><rect class="cls-2" x="476.15" y="399.9" width="3.29" height="70.59" transform="translate(1051.27 -156.34) rotate(116.4)"/><circle class="cls-3" cx="480.05" cy="93.48" r="4.66"/><circle class="cls-4" cx="480.05" cy="93.48" r="2.48"/><path class="cls-3" d="M441.64,417.47h0a2.82,2.82,0,0,1,3.77-1.27l8.82,4.38a2.82,2.82,0,0,1,1.27,3.77h0a2.8,2.8,0,0,1-3.77,1.27l-8.82-4.37A2.81,2.81,0,0,1,441.64,417.47Z" transform="translate(-28.78 -357.09)"/><path class="cls-4" d="M451.87,422.93A1.1,1.1,0,1,1,453,424,1.09,1.09,0,0,1,451.87,422.93Z" transform="translate(-28.78 -357.09)"/><path class="cls-4" d="M442.8,418.37a1.1,1.1,0,1,1,1.1,1.09A1.1,1.1,0,0,1,442.8,418.37Z" transform="translate(-28.78 -357.09)"/><path class="cls-2" d="M466.86,526.55h32.82A4.42,4.42,0,0,1,504.1,531v.82H462.44V531A4.42,4.42,0,0,1,466.86,526.55Z" transform="translate(-28.78 -357.09)"/><rect class="cls-2" x="481.43" y="517.39" width="3.68" height="11.43" transform="translate(937.76 689.12) rotate(-180)"/><circle class="cls-3" cx="454.49" cy="158.11" r="4.66"/><circle class="cls-4" cx="454.49" cy="158.11" r="2.48"/><rect class="cls-4" x="472.56" y="189.08" width="38.37" height="13.02"/><path class="cls-5" d="M542.26,549.08v-2.92H465.35a2.39,2.39,0,0,0-2.38,2.39v8.25a2.38,2.38,0,0,0,2.38,2.38h76.91v-2.91H501.34v-7.19Z" transform="translate(-28.78 -357.09)"/><path class="cls-6" d="M465.35,546.16a2.39,2.39,0,0,0-2.38,2.39v2.87h38.37v-2.34h40.92v-2.92H465.35Z" transform="translate(-28.78 -357.09)"/><rect class="cls-4" x="465.53" y="176.06" width="38.37" height="13.02"/><path class="cls-2" d="M535.22,536.06v-2.92h-76.9a2.39,2.39,0,0,0-2.39,2.39v8.25a2.38,2.38,0,0,0,2.39,2.38h76.9v-2.91H494.31v-7.19Z" transform="translate(-28.78 -357.09)"/><path class="cls-7" d="M458.32,533.14a2.39,2.39,0,0,0-2.39,2.39v2.87h38.38v-2.34h40.91v-2.92h-76.9Z" transform="translate(-28.78 -357.09)"/><path class="cls-8" d="M74.33,493.14h8.86a2.15,2.15,0,0,1,2.15,2.15,2.16,2.16,0,0,1,2.16-2.15h8.85a2.16,2.16,0,0,1,2.16,2.15,2.15,2.15,0,0,1,2.15-2.15h8.86a2.15,2.15,0,0,1,2.15,2.15v64.1a2.15,2.15,0,0,1-2.15,2.15h-8.86a2.15,2.15,0,0,1-2.15-2.15,2.16,2.16,0,0,1-2.16,2.15H87.5a2.16,2.16,0,0,1-2.16-2.15,2.15,2.15,0,0,1-2.15,2.15H74.33a2.15,2.15,0,0,1-2.15-2.15v-64.1A2.15,2.15,0,0,1,74.33,493.14Z" transform="translate(-28.78 -357.09)"/><rect class="cls-8" x="116.46" y="492.84" width="13.16" height="68.4" rx="2.15" transform="translate(-107.02 -332.43) rotate(-8.69)"/><rect class="cls-9" x="63.15" y="136.05" width="13.16" height="68.4" rx="2.15"/><path class="cls-10" d="M102.93,493.14a2.16,2.16,0,0,1,2.16,2.15v64.1a2.16,2.16,0,0,1-2.16,2.15H95.79v-68.4Z" transform="translate(-28.78 -357.09)"/><rect class="cls-4" x="65.77" y="142.6" width="7.92" height="30.46" rx="1.91"/><rect class="cls-11" x="49.98" y="136.05" width="13.16" height="68.4" rx="2.15"/><path class="cls-5" d="M89.77,493.14a2.15,2.15,0,0,1,2.15,2.15v64.1a2.15,2.15,0,0,1-2.15,2.15H82.63v-68.4Z" transform="translate(-28.78 -357.09)"/><rect class="cls-4" x="52.61" y="142.6" width="7.92" height="30.46" rx="1.91"/><rect class="cls-12" x="36.82" y="136.05" width="13.16" height="68.4" rx="2.15"/><path class="cls-2" d="M76.6,493.14a2.16,2.16,0,0,1,2.16,2.15v64.1a2.16,2.16,0,0,1-2.16,2.15H69.46v-68.4Z" transform="translate(-28.78 -357.09)"/><rect class="cls-4" x="39.44" y="142.6" width="7.92" height="30.46" rx="1.91"/><rect class="cls-13" x="109.88" y="492.84" width="13.16" height="68.4" rx="2.15" transform="translate(-107.1 -333.43) rotate(-8.69)"/><path class="cls-14" d="M115.67,492.56a2.16,2.16,0,0,1,2.46,1.81l9.68,63.35a2.15,2.15,0,0,1-1.8,2.46L119,561.26l-10.34-67.62Z" transform="translate(-28.78 -357.09)"/><rect class="cls-4" x="110.63" y="499.53" width="7.92" height="30.46" rx="1.91" transform="translate(-105.26 -333.86) rotate(-8.69)"/><path class="cls-15" d="M13.83,214.13H526.54a0,0,0,0,1,0,0v19.54A17.54,17.54,0,0,1,509,251.21H31.37a17.54,17.54,0,0,1-17.54-17.54V214.13a0,0,0,0,1,0,0Z"/><rect class="cls-16" x="1.57" y="203.59" width="537.75" height="16.76" rx="6"/><path class="cls-17" d="M562.1,575.93H53.34c-5.42,0-11.49.78-16.87,0-6.32-.91-6.52-12.75-.12-13.76.32,0,.67,0,1,0,2.43-.19,4.95,0,7.38,0H537.1c7.73,0,15.6-.42,23.32,0,.51,0,1.05-.07,1.55,0a5,5,0,0,1,4.63,4.5c.61,3.59-.08,8.81-4.5,9.26-1.91.19-1.93,3.2,0,3,10.38-1,10.47-18.91-.05-19.76-1.61-.13-3.28,0-4.89,0H106.3c-23,0-46-.63-69,0-7.07.2-8.9,5.76-8.45,12.06.39,5.36,4.22,7.62,9.05,7.7,8.12.14,16.25,0,24.37,0H562.1A1.5,1.5,0,0,0,562.1,575.93Z" transform="translate(-28.78 -357.09)"/><polygon class="cls-18" points="229.97 52.83 221.47 63.02 226.98 75.45 313.21 77.15 316.39 64.99 310.91 56.66 229.97 52.83"/><path class="cls-19" d="M251.91,412,260.1,415l74,3.52s13.12-1.29,15.13-17.29v-3.38s-8.72,1.6-8-1.71c0,0,10.7-12.57,7.26-14.83,0,0-16.25,5.81-18.11,4.07,0,0,7.34-12.57,5.71-17.14,0,0-26.17,9.87-30.17,9,0,0,7.15-3.1,2.4-18.64,0,0-22.1,21.5-31.81,22.3,0,0-1.82-6.68-4.75-6.72,0,0-5.3,9-11.57,13.48a15.31,15.31,0,0,0-5,6.12A36,36,0,0,0,251.91,412Z" transform="translate(-28.78 -357.09)"/><path class="cls-20" d="M251.86,412.15c5.05,1.89,8.41,3.08,13.64,3.33l27.66,1.32,30.14,1.43c3.78.18,8,1,11.75.37,9.86-1.55,14.4-11.8,14.4-20.71a.19.19,0,0,0-.24-.18c-2,.35-7.61,1.1-7.55-1.77,0-1,3.24-4.18,3.82-5,1.3-1.88,5.68-7.35,3.13-9.7a.16.16,0,0,0-.18-.05c-2.45.87-16.51,6.4-17.8,4.16-.3-.53,3.53-7,3.82-7.74,1.18-2.85,2.59-6.24,1.81-9.36a.17.17,0,0,0-.23-.13c-8.61,3.24-17.5,6.83-26.55,8.61a8.06,8.06,0,0,1-2.85.4c-.91-.22-.36.64-.08-.05s1.48-1.41,1.92-2.11c3-4.79,1.45-11.41,0-16.41a.19.19,0,0,0-.31-.09,164.88,164.88,0,0,1-18,15.28c-3,2.15-8.54,7-12.42,6.77-1.89-.11-.85-.08-1.76-1.67-.32-.58-.51-1.25-.84-1.84-.81-1.47-1.66-2.64-3.35-3a.19.19,0,0,0-.21.08,57.6,57.6,0,0,1-4.6,6.56c-2.77,3.45-6.41,5.79-9.33,9-5.18,5.71-6.41,15-5.94,22.33,0,.24.39.24.38,0a36.68,36.68,0,0,1,2.77-17c2.29-5.3,6.91-7.83,10.61-12,1.84-2.05,3.5-5.77,5.61-7.42.15-.12.46-1,.69-1.1.71-.29,2.61,2,3.05,2.7a13.93,13.93,0,0,1,1.49,3.76.19.19,0,0,0,.18.14c4.59-.57,8.81-3.49,12.51-6.06a151.59,151.59,0,0,0,13.8-11.1,50.12,50.12,0,0,1,4.45-4.07c.17-.12.87-1,1.07-1a36.11,36.11,0,0,1,1,4.7c.69,4,1.08,11.4-3.52,13.54a.2.2,0,0,0,.05.35c3.11.45,6.78-1.06,9.7-1.92,4.88-1.44,9.69-3.11,14.48-4.82,1.35-.48,3.62-1.86,5.06-1.84a6.32,6.32,0,0,1,.86-.32c.53.35,0,3.32-.15,3.82-.94,4.55-3.29,9-5.61,13a.18.18,0,0,0,.07.25c1.38.84,3.59.17,5.06-.13a89.28,89.28,0,0,0,10.62-3c.32-.11,2.22-1,2.51-.86,1.68,1-.73,5-1.21,5.9a41.57,41.57,0,0,1-2.65,4.06c-.78,1.1-2.94,2.86-3.21,4.17-.85,4.15,4.45,1.81,6.85,2.56,1.55.48.17-.79.83.53.58,1.16-.23,4.15-.49,5.28a18.7,18.7,0,0,1-8.39,12.12c-6,3.59-13.3,1.86-19.93,1.54l-41.26-2L262.47,415c-3.74-.18-7-1.86-10.51-3.17C251.73,411.7,251.63,412.07,251.86,412.15Z" transform="translate(-28.78 -357.09)"/><path class="cls-21" d="M351.94,399.25a2.29,2.29,0,0,0-2.07-2.24,20.22,20.22,0,0,1-5.05-1.1c3.43-5.1,4.5-12.72,4.62-13.71a2.3,2.3,0,0,0-3.44-2.26c-2.94,1.75-6.88,2.11-9.81,2.1,2.66-5,3.1-12,3.15-13a2.29,2.29,0,0,0-1-2,2.33,2.33,0,0,0-2.3-.11c-7.13,3.69-17.82,6.27-24.12,7.58,3.11-7.58-.63-15.66-.82-16.07a2.3,2.3,0,0,0-4.07-.15c-5.61,10-21.59,17.51-28.27,20.32a20.49,20.49,0,0,0-5.1-10.21,2.3,2.3,0,0,0-3.95,1.23c-.53,3.65-3.37,7.5-5.46,10.07a77.87,77.87,0,0,0-8.1,11.57c-4.36,8-5,16.73-4.92,23.75l-.39.31c-2.68,2.24-3.24,6.22-1.54,10.93a20.93,20.93,0,0,0,1.65,3.43h-2.21a17.1,17.1,0,0,1,2.5,4.58H342a16.45,16.45,0,0,1,4-4.58H344.9a20.93,20.93,0,0,0,1.65-3.43c1.46-4.05,1.25-7.56-.55-9.89C352,410.51,352,399.76,351.94,399.25Zm-93.19,24.64a12.61,12.61,0,0,1-1.34-1.3c-.74-.82-2,.4-1.22,1.22a14.39,14.39,0,0,0,2.56,2.25v3.59h-1.93c-.88-.44-3.26-3.59-3.84-7.16-.16-1-.28-2.82.75-3.68a1.8,1.8,0,0,1,1.57-.55c1.28.23,2.71,1.85,3.45,2.94Zm73.71,5.76H319.29v-1.72a2.87,2.87,0,0,0-5.73,0v1.72H282.24v-1.72a2.87,2.87,0,0,0-5.73,0v1.72H263.34V415.89a356.57,356.57,0,0,0,48,3.4c6.88,0,14-.25,21.16-.84Zm10.36-7.16c-.58,3.57-3,6.72-3.84,7.16h-1.93v-3a7.24,7.24,0,0,0,2.83-2.69.86.86,0,0,0-1.49-.87,5.55,5.55,0,0,1-1.34,1.51V421.2c.74-1.09,2.17-2.71,3.45-2.94a1.8,1.8,0,0,1,1.57.55C343.1,419.67,343,421.48,342.82,422.49Zm-.87-8.72a6.14,6.14,0,0,0-2.26,0,7.31,7.31,0,0,0-2.64,1.07v-1.47c-.48.1-1,.14-1.46.22a21.58,21.58,0,0,1-3.11.33.78.78,0,0,1-.22,0c-30.23,2.55-61.06-1.46-68.92-2.61v-.07a8.5,8.5,0,0,1-1.68-.23,12.81,12.81,0,0,1-2.91-.86v4.72a7.31,7.31,0,0,0-2.64-1.07l-.35-.05c0-6.46.74-13.65,4.36-20.27a73.56,73.56,0,0,1,7.64-10.88,37.22,37.22,0,0,0,5-7.53,11.62,11.62,0,0,1,1.52,6.59,2.29,2.29,0,0,0,3.05,2.46c.94-.34,21.07-7.73,30.87-19.53.63,3.33.64,8-2.76,11.59a2.31,2.31,0,0,0-.36,2.65,2.28,2.28,0,0,0,2.39,1.19c.7-.11,15.67-2.57,26.89-7.26-.63,3.76-1.92,8-4,9.44a2.29,2.29,0,0,0,1,4.12,33.18,33.18,0,0,0,12.78-.62c-.82,3.27-2.25,7.3-4.41,9.28a2.23,2.23,0,0,0-.74,1.73,2.31,2.31,0,0,0,.81,1.71c.27.23,2.56,2.05,7.5,2.91C347,404.5,346,410.84,342,413.77Z" transform="translate(-28.78 -357.09)"/><rect class="cls-22" x="220.51" y="177.65" width="93.32" height="16.33"/><path class="cls-23" d="M236.69,529.89l9.36,17.38A8.59,8.59,0,0,0,257.19,551l.15-.06a7.79,7.79,0,0,0,3.7-10.62l-7.69-15.11Z" transform="translate(-28.78 -357.09)"/><path class="cls-20" d="M235.39,530.65,243.11,545C246,550.3,250.2,555,257,552.68c13.36-4.66,1.4-20.91-2.32-28.23a1.52,1.52,0,0,0-1.69-.69l-16.67,4.68a1.51,1.51,0,0,0,.8,2.9l16.66-4.68-1.69-.69,5.15,10.12c.79,1.55,1.75,3.11,2.41,4.73,2,4.9-1.66,10.51-7.29,9.27-4.85-1.07-6.84-7-9-11l-5.38-10C237.07,527.43,234.48,529,235.39,530.65Z" transform="translate(-28.78 -357.09)"/><path class="cls-23" d="M332.28,527.69V543.9a8.89,8.89,0,0,0,8.89,8.88h.4a8.54,8.54,0,0,0,8.55-8.54V527.69Z" transform="translate(-28.78 -357.09)"/><path class="cls-20" d="M330.78,527.69c0,8.89-3.09,26.57,10.59,26.59,13.46,0,10.25-17.94,10.25-26.59a1.52,1.52,0,0,0-1.5-1.5H332.28a1.5,1.5,0,0,0,0,3h17.84l-1.5-1.5c0,6.57,3,23.57-7.25,23.59-10.55,0-7.59-16.84-7.59-23.59A1.5,1.5,0,0,0,330.78,527.69Z" transform="translate(-28.78 -357.09)"/><rect class="cls-24" x="207.91" y="194.92" width="123.04" height="8.89" rx="4.45"/><path class="cls-17" d="M355.28,559.4H244.62c-.9,0-2.62.35-3.47,0-3.56-1.48-3.39-5.06.46-5.89a10.93,10.93,0,0,1,2.14,0H353.28a10.06,10.06,0,0,1,1.82,0c3.55.68,4.75,5.27-.22,5.94-1.9.26-1.09,3.15.8,2.89,5.33-.71,7.8-7.8,2.75-10.9-1.71-1.06-3.54-.93-5.45-.93H258.6c-5.68,0-11.61-.49-17.28,0-8.49.73-7.38,11.57.72,11.89,18.66.73,37.49,0,56.17,0h57.07A1.5,1.5,0,0,0,355.28,559.4Z" transform="translate(-28.78 -357.09)"/><polygon class="cls-24" points="255.52 181.19 247.31 203.71 291.55 203.71 284.26 181.19 255.52 181.19"/><path class="cls-17" d="M282.85,537.88l-8.21,22.52a1.51,1.51,0,0,0,1.45,1.9h44.24a1.5,1.5,0,0,0,1.44-1.9l-7.28-22.52a1.55,1.55,0,0,0-1.45-1.1H284.3a1.5,1.5,0,0,0,0,3H313l-1.44-1.1,7.28,22.52,1.45-1.9H276.09l1.44,1.9,8.21-22.52C286.4,536.86,283.51,536.08,282.85,537.88Z" transform="translate(-28.78 -357.09)"/><polygon class="cls-25" points="237.14 99.91 229.62 120.25 231.85 120.25 238.95 99.91 237.14 99.91"/><rect class="cls-24" x="344.76" y="195.61" width="19.93" height="7.72" rx="3.86"/><path class="cls-17" d="M389.6,558.92h-6.5c-1.39,0-2.83.09-4.22,0-.4,0-.83.06-1.22,0-2.41-.4-3.57-3.2-1.06-4.38,2.1-1,5.44-.34,7.69-.34,1.35,0,2.74-.1,4.08,0a9.55,9.55,0,0,1,1.07,0c3.17.57,3,4.34-.23,4.77-1.91.26-1.1,3.15.79,2.89,6.71-.9,6.2-10.07-.4-10.66a66.71,66.71,0,0,0-12.4,0,5.34,5.34,0,0,0-.2,10.64c4.06.58,8.5.06,12.6.06A1.5,1.5,0,0,0,389.6,558.92Z" transform="translate(-28.78 -357.09)"/><rect class="cls-26" x="182.2" y="73.27" width="175.77" height="107.92" rx="6"/><path class="cls-17" d="M380.74,536.78H268.56c-16.53,0-33.32.85-49.83,0-3-.16-5.58-.23-6.25-4.56a37,37,0,0,1,0-5.47V459.47c0-7.32-.82-15.17,0-22.45.7-6.27,6.28-5.16,10.79-5.16H376a32,32,0,0,1,4.49,0c4.22.61,4.58,3.23,4.74,6.39.43,8.21,0,16.55,0,24.77v65.56c0,3.43.55,7.69-4.5,8.2-1.9.19-1.92,3.19,0,3,8.93-.91,7.5-9.85,7.5-16.35V439.27c0-2.51.18-5-1.35-7.17-3-4.3-9.18-3.24-13.74-3.24H268.09c-16.74,0-33.59-.55-50.32,0-7,.23-8.29,5.43-8.29,11.19V509.6c0,7.39-.48,15,0,22.34.44,6.85,5.69,7.84,11.19,7.84H380.74A1.5,1.5,0,0,0,380.74,536.78Z" transform="translate(-28.78 -357.09)"/><circle class="cls-16" cx="269.03" cy="127.23" r="13.34"/><path class="cls-17" d="M309.65,484.32c-.76,15.1-23.68,15.36-23.68,0s22.92-15.12,23.68,0c.1,1.92,3.1,1.93,3,0-.41-8.06-6.46-14.84-14.84-14.84a14.84,14.84,0,1,0,0,29.68c8.37,0,14.43-6.78,14.84-14.84C312.75,482.39,309.75,482.39,309.65,484.32Z" transform="translate(-28.78 -357.09)"/><rect class="cls-27" x="189.09" y="170.61" width="99.57" height="4.32" rx="2.16"/><rect class="cls-27" x="294.13" y="170.61" width="9.37" height="4.32" rx="2.16"/><rect class="cls-28" x="268.83" y="192.84" width="2.5" height="34.37" rx="1.25"/></g></g></svg>