<svg xmlns="http://www.w3.org/2000/svg" viewBox="0 0 130.23 148.07"><defs><style>.cls-1{isolation:isolate;}.cls-2,.cls-7{fill:#ffd725;}.cls-3{fill:#f9df6f;}.cls-4{fill:#fff;}.cls-5{fill:#ec6265;}.cls-6{fill:#626161;}.cls-6,.cls-7{opacity:0.4;mix-blend-mode:multiply;}</style></defs><title>11</title><g class="cls-1"><g id="Layer_1" data-name="Layer 1"><path class="cls-2" d="M233.57,365.35a29,29,0,0,1,13.21-9.13c10.12-3.16,14.57-10.83,19.64-7.55s-.11,10.49,1.13,21a28.91,28.91,0,0,1-2.94,15.78,3.3,3.3,0,0,1-4.77,1.32l-12.76-8.27-12.76-8.27A3.31,3.31,0,0,1,233.57,365.35Z" transform="translate(-232.8 -347.87)"/><path class="cls-3" d="M233.57,365.35a29,29,0,0,1,13.21-9.13c10.12-3.16,14.57-10.83,19.64-7.55a4.59,4.59,0,0,1,1.72,1.89c-4.23-.14-8.73,5.69-17.22,8.35A28.88,28.88,0,0,0,237.71,368a3.31,3.31,0,0,0,.75,4.9l-4.14-2.68A3.31,3.31,0,0,1,233.57,365.35Z" transform="translate(-232.8 -347.87)"/><rect class="cls-2" x="315.03" y="384.8" width="3.29" height="70.59" transform="translate(224.38 579.2) rotate(-158.48)"/><rect class="cls-2" x="296.92" y="336.65" width="3.29" height="70.59" transform="translate(531.67 -77.96) rotate(116.4)"/><circle class="cls-3" cx="96.8" cy="39.46" r="4.66"/><circle class="cls-4" cx="96.8" cy="39.46" r="2.48"/><path class="cls-3" d="M262.41,354.22h0a2.82,2.82,0,0,1,3.77-1.27l8.82,4.38a2.82,2.82,0,0,1,1.27,3.78h0a2.82,2.82,0,0,1-3.77,1.27L263.68,358A2.81,2.81,0,0,1,262.41,354.22Z" transform="translate(-232.8 -347.87)"/><path class="cls-4" d="M272.64,359.68a1.1,1.1,0,1,1,1.09,1.1A1.09,1.09,0,0,1,272.64,359.68Z" transform="translate(-232.8 -347.87)"/><path class="cls-4" d="M263.57,355.12a1.1,1.1,0,1,1,1.1,1.1A1.1,1.1,0,0,1,263.57,355.12Z" transform="translate(-232.8 -347.87)"/><path class="cls-2" d="M287.64,463.3h32.81a4.42,4.42,0,0,1,4.42,4.42v.82H283.21v-.82A4.42,4.42,0,0,1,287.64,463.3Z" transform="translate(-232.8 -347.87)"/><rect class="cls-2" x="302.2" y="454.14" width="3.68" height="11.43" transform="translate(375.28 571.84) rotate(-180)"/><circle class="cls-3" cx="71.24" cy="104.08" r="4.66"/><circle class="cls-4" cx="71.24" cy="104.08" r="2.48"/><rect class="cls-4" x="89.31" y="135.05" width="38.37" height="13.02"/><path class="cls-5" d="M363,485.83v-2.91H286.12a2.38,2.38,0,0,0-2.38,2.38v8.25a2.39,2.39,0,0,0,2.38,2.39H363V493H322.11v-7.19Z" transform="translate(-232.8 -347.87)"/><path class="cls-6" d="M286.12,482.92a2.38,2.38,0,0,0-2.38,2.38v2.87h38.37v-2.34H363v-2.91H286.12Z" transform="translate(-232.8 -347.87)"/><rect class="cls-4" x="82.28" y="122.03" width="38.37" height="13.02"/><path class="cls-2" d="M356,472.81V469.9h-76.9a2.39,2.39,0,0,0-2.39,2.38v8.25a2.39,2.39,0,0,0,2.39,2.39H356V480H315.08v-7.2Z" transform="translate(-232.8 -347.87)"/><path class="cls-7" d="M279.09,469.9a2.39,2.39,0,0,0-2.39,2.38v2.87h38.38v-2.34H356V469.9h-76.9Z" transform="translate(-232.8 -347.87)"/></g></g></svg>