<svg id="Layer_1" data-name="Layer 1" xmlns="http://www.w3.org/2000/svg" viewBox="0 0 137.65 138.01"><defs><style>.cls-1{fill:#bfbebf;}.cls-2{fill:#39af76;}.cls-3{fill:#1a9460;}.cls-4{fill:#fff;}.cls-5{fill:#ef7e81;}.cls-6{fill:#ec6265;}.cls-7{fill:#fee261;}.cls-8{fill:#ffd725;}.cls-9{fill:#6fb9e7;}.cls-10{fill:#458ccb;}</style></defs><title>12</title><path class="cls-1" d="M246.38,353.08h17.71a4.31,4.31,0,0,1,4.31,4.31,4.31,4.31,0,0,1,4.31-4.31h17.71a4.3,4.3,0,0,1,4.3,4.31,4.31,4.31,0,0,1,4.31-4.31h17.71a4.31,4.31,0,0,1,4.31,4.31V485.58a4.31,4.31,0,0,1-4.31,4.31H299a4.31,4.31,0,0,1-4.31-4.31,4.3,4.3,0,0,1-4.3,4.31H272.71a4.31,4.31,0,0,1-4.31-4.31,4.31,4.31,0,0,1-4.31,4.31H246.38a4.31,4.31,0,0,1-4.31-4.31V357.39A4.31,4.31,0,0,1,246.38,353.08Z" transform="translate(-228.9 -351.87)"/><path class="cls-1" d="M324.71,354.6l17.51-2.68a4.31,4.31,0,0,1,4.91,3.61l19.38,126.72a4.32,4.32,0,0,1-3.61,4.91l-17.51,2.68a4.31,4.31,0,0,1-4.91-3.61L321.1,359.51A4.31,4.31,0,0,1,324.71,354.6Z" transform="translate(-228.9 -351.87)"/><rect class="cls-2" x="52.66" y="1.21" width="26.33" height="136.81" rx="4.31"/><path class="cls-3" d="M303.58,353.08a4.31,4.31,0,0,1,4.31,4.31V485.58a4.31,4.31,0,0,1-4.31,4.31H289.29V353.08Z" transform="translate(-228.9 -351.87)"/><rect class="cls-4" x="57.91" y="14.3" width="15.83" height="60.92" rx="3.83"/><rect class="cls-5" x="26.33" y="1.21" width="26.33" height="136.81" rx="4.31"/><path class="cls-6" d="M277.25,353.08a4.31,4.31,0,0,1,4.31,4.31V485.58a4.31,4.31,0,0,1-4.31,4.31H263V353.08Z" transform="translate(-228.9 -351.87)"/><rect class="cls-4" x="31.58" y="14.3" width="15.83" height="60.92" rx="3.83"/><rect class="cls-7" y="1.21" width="26.33" height="136.81" rx="4.31"/><path class="cls-8" d="M250.92,353.08a4.31,4.31,0,0,1,4.31,4.31V485.58a4.31,4.31,0,0,1-4.31,4.31H236.64V353.08Z" transform="translate(-228.9 -351.87)"/><rect class="cls-4" x="5.25" y="14.3" width="15.83" height="60.92" rx="3.83"/><rect class="cls-9" x="317.48" y="352.48" width="26.33" height="136.81" rx="4.31" transform="translate(-288.72 -297.06) rotate(-8.69)"/><path class="cls-10" d="M329.05,351.92a4.32,4.32,0,0,1,4.92,3.61l19.37,126.72a4.31,4.31,0,0,1-3.61,4.91l-14.12,2.16L314.93,354.08Z" transform="translate(-228.9 -351.87)"/><rect class="cls-4" x="318.97" y="365.86" width="15.83" height="60.92" rx="3.83" transform="translate(-285.04 -297.92) rotate(-8.69)"/></svg>