<svg id="Layer_1" data-name="Layer 1" xmlns="http://www.w3.org/2000/svg" viewBox="0 0 185.53 205.64"><defs><style>.cls-1,.cls-6{fill:#fecf5a;}.cls-1{stroke:#010101;}.cls-1,.cls-12,.cls-5{stroke-miterlimit:10;}.cls-2{fill:#9a6c54;}.cls-3{fill:#010101;}.cls-4{fill:#0e0f1e;}.cls-5{fill:#2dabe3;stroke:#2dabe3;stroke-width:0.5px;}.cls-7{fill:#5e5d5f;}.cls-8{fill:#111;}.cls-9{fill:#fff;opacity:0.53;}.cls-10{fill:#858585;}.cls-11{fill:#d3d3d3;}.cls-12{fill:#9f9e9d;stroke:#9f9e9d;stroke-width:0.25px;opacity:0.59;}</style></defs><title>13</title><polygon class="cls-1" points="49.49 52.83 40.98 63.02 46.5 75.45 132.72 77.15 135.9 64.99 130.42 56.66 49.49 52.83"/><path class="cls-2" d="M247.43,373.19l8.2,3.07,74,3.53s13.12-1.3,15.13-17.29v-3.38s-8.72,1.6-8.05-1.72c0,0,10.7-12.57,7.26-14.83,0,0-16.25,5.81-18.11,4.08,0,0,7.35-12.58,5.72-17.15,0,0-26.18,9.87-30.18,9,0,0,7.16-3.11,2.41-18.65,0,0-22.11,21.5-31.81,22.31,0,0-1.82-6.69-4.75-6.73,0,0-5.31,9-11.58,13.48a15.44,15.44,0,0,0-5,6.12A36,36,0,0,0,247.43,373.19Z" transform="translate(-204.79 -318.31)"/><path class="cls-3" d="M247.38,373.37c5.06,1.9,8.42,3.09,13.64,3.34L288.68,378l30.15,1.44c3.77.18,8,1,11.75.36,9.86-1.54,14.39-11.8,14.39-20.7a.18.18,0,0,0-.23-.18c-2,.34-7.61,1.09-7.56-1.77,0-1,3.24-4.19,3.82-5,1.3-1.87,5.69-7.35,3.13-9.7a.2.2,0,0,0-.18-.05c-2.44.87-16.51,6.41-17.79,4.16-.3-.53,3.52-7,3.82-7.74,1.17-2.84,2.59-6.24,1.81-9.36a.19.19,0,0,0-.23-.13c-8.61,3.24-17.51,6.83-26.55,8.61a7.86,7.86,0,0,1-2.86.4c-.91-.22-.36.65-.07,0s1.48-1.42,1.91-2.11c3-4.79,1.46-11.42,0-16.42a.19.19,0,0,0-.32-.08,163.75,163.75,0,0,1-18,15.27c-3,2.16-8.54,7-12.42,6.77-1.89-.1-.85-.07-1.76-1.67-.33-.57-.52-1.25-.84-1.83-.81-1.47-1.67-2.65-3.35-3a.18.18,0,0,0-.21.09,59.43,59.43,0,0,1-4.6,6.56c-2.77,3.44-6.41,5.79-9.33,9-5.19,5.72-6.42,15-5.94,22.33,0,.24.39.25.37,0a36.78,36.78,0,0,1,2.78-17c2.28-5.31,6.91-7.84,10.61-12,1.84-2.06,3.5-5.78,5.6-7.42.16-.12.46-1,.7-1.1.71-.3,2.6,2,3.05,2.7a13.8,13.8,0,0,1,1.49,3.76.18.18,0,0,0,.18.13c4.59-.57,8.8-3.48,12.5-6.06a150.36,150.36,0,0,0,13.81-11.1,50.25,50.25,0,0,1,4.45-4.07c.16-.11.87-1,1.06-1a34.52,34.52,0,0,1,1,4.7c.7,4,1.09,11.39-3.51,13.54a.19.19,0,0,0,0,.34c3.12.46,6.79-1.05,9.7-1.92,4.88-1.44,9.7-3.1,14.49-4.81,1.35-.49,3.61-1.87,5.06-1.84.05,0,.78-.37.85-.32.53.34,0,3.31-.14,3.82-.94,4.55-3.29,9-5.61,13a.2.2,0,0,0,.07.26c1.38.83,3.58.16,5.05-.13a90.64,90.64,0,0,0,10.62-3c.33-.11,2.23-1,2.51-.86,1.69,1-.73,5-1.21,5.89a40.45,40.45,0,0,1-2.64,4.07c-.79,1.1-2.95,2.86-3.21,4.16-.85,4.15,4.45,1.82,6.84,2.56,1.55.48.18-.79.84.53.58,1.16-.24,4.15-.5,5.29a18.65,18.65,0,0,1-8.38,12.11c-6,3.59-13.31,1.86-19.94,1.55l-41.25-2L258,376.19c-3.74-.18-7-1.86-10.51-3.18C247.26,372.93,247.16,373.29,247.38,373.37Z" transform="translate(-204.79 -318.31)"/><path class="cls-4" d="M347.47,360.48a2.3,2.3,0,0,0-2.07-2.25,19.26,19.26,0,0,1-5-1.1c3.43-5.1,4.49-12.72,4.62-13.7a2.29,2.29,0,0,0-3.45-2.26c-2.94,1.74-6.87,2.11-9.81,2.09,2.67-5,3.1-12,3.15-13a2.28,2.28,0,0,0-3.34-2.14c-7.14,3.69-17.83,6.27-24.13,7.57,3.11-7.57-.62-15.66-.82-16.07a2.29,2.29,0,0,0-4.07-.14c-5.61,9.95-21.59,17.5-28.26,20.31a20.47,20.47,0,0,0-5.11-10.2,2.28,2.28,0,0,0-2.36-.63,2.31,2.31,0,0,0-1.58,1.86c-.53,3.65-3.37,7.49-5.46,10.06a78,78,0,0,0-8.11,11.58c-4.36,8-5,16.73-4.91,23.75l-.39.3c-2.69,2.24-3.25,6.23-1.54,10.94a20.1,20.1,0,0,0,1.65,3.43h-2.22a16.68,16.68,0,0,1,2.5,4.58h90.8a16.25,16.25,0,0,1,4-4.58h-1.06a20.1,20.1,0,0,0,1.65-3.43c1.47-4.05,1.25-7.57-.54-9.9C347.56,371.74,347.47,361,347.47,360.48Zm-93.19,24.64a13.77,13.77,0,0,1-1.35-1.3c-.73-.83-2,.39-1.21,1.21a14.11,14.11,0,0,0,2.56,2.26v3.59h-1.93c-.89-.44-3.26-3.6-3.84-7.17-.17-1-.29-2.82.74-3.68a1.84,1.84,0,0,1,1.57-.55c1.28.23,2.71,1.86,3.46,2.95ZM328,390.88H314.81v-1.72a2.87,2.87,0,1,0-5.73,0v1.72H277.77v-1.72a2.87,2.87,0,1,0-5.73,0v1.72H258.86V377.11a356.72,356.72,0,0,0,48,3.4c6.88,0,14-.24,21.17-.84Zm10.35-7.17c-.58,3.57-2.95,6.73-3.84,7.17h-1.93v-3a7.09,7.09,0,0,0,2.83-2.68.86.86,0,0,0-1.48-.87,5.4,5.4,0,0,1-1.35,1.5v-3.42c.75-1.09,2.18-2.72,3.46-2.95a1.84,1.84,0,0,1,1.57.55C338.63,380.89,338.51,382.71,338.34,383.71Zm-.87-8.71a6.16,6.16,0,0,0-2.26,0,7.65,7.65,0,0,0-2.64,1.07v-1.46c-.48.09-1,.14-1.45.22a21.85,21.85,0,0,1-3.12.32.66.66,0,0,1-.21,0c-30.24,2.56-61.06-1.46-68.93-2.61v-.06a8.61,8.61,0,0,1-1.68-.24,13.23,13.23,0,0,1-2.9-.85V376a7.65,7.65,0,0,0-2.64-1.07l-.35-.05c0-6.45.73-13.65,4.35-20.26a73.71,73.71,0,0,1,7.65-10.89,37.05,37.05,0,0,0,4.95-7.53,11.73,11.73,0,0,1,1.53,6.59,2.29,2.29,0,0,0,3.05,2.46c.94-.34,21.07-7.72,30.87-19.52.62,3.33.63,8-2.76,11.59a2.29,2.29,0,0,0,2,3.84c.7-.12,15.67-2.57,26.88-7.26-.63,3.76-1.91,8-3.95,9.44a2.28,2.28,0,0,0-.9,2.38,2.31,2.31,0,0,0,1.87,1.74,33.57,33.57,0,0,0,12.77-.62c-.82,3.27-2.25,7.29-4.41,9.27a2.34,2.34,0,0,0-.74,1.74,2.3,2.3,0,0,0,.81,1.7c.28.23,2.56,2.06,7.5,2.91C342.53,365.72,341.49,372.07,337.47,375Z" transform="translate(-204.79 -318.31)"/><rect class="cls-5" x="40.02" y="177.65" width="93.32" height="16.33"/><path class="cls-6" d="M232.21,491.12l9.37,17.37a8.59,8.59,0,0,0,11.14,3.74l.15-.07a7.8,7.8,0,0,0,3.7-10.62l-7.69-15.1Z" transform="translate(-204.79 -318.31)"/><path class="cls-3" d="M230.92,491.87l7.72,14.33c2.87,5.32,7.09,10.06,13.85,7.7,13.36-4.65,1.41-20.9-2.32-28.22a1.5,1.5,0,0,0-1.69-.69l-16.67,4.68a1.5,1.5,0,0,0,.8,2.89l16.67-4.68-1.7-.69,5.15,10.12c.8,1.56,1.76,3.11,2.41,4.73,2,4.9-1.66,10.51-7.29,9.27-4.84-1.07-6.83-7-9-11l-5.38-10C232.59,488.66,230,490.17,230.92,491.87Z" transform="translate(-204.79 -318.31)"/><path class="cls-6" d="M327.81,488.92v16.2a8.88,8.88,0,0,0,8.88,8.89h.41a8.54,8.54,0,0,0,8.54-8.55V488.92Z" transform="translate(-204.79 -318.31)"/><path class="cls-3" d="M326.31,488.92c0,8.88-3.09,26.57,10.58,26.59,13.46,0,10.25-17.95,10.25-26.59a1.52,1.52,0,0,0-1.5-1.5H327.81a1.5,1.5,0,0,0,0,3h17.83l-1.5-1.5c0,6.56,3,23.56-7.25,23.59-10.54,0-7.58-16.84-7.58-23.59A1.5,1.5,0,0,0,326.31,488.92Z" transform="translate(-204.79 -318.31)"/><rect class="cls-7" x="27.42" y="194.92" width="123.04" height="8.89" rx="4.45"/><path class="cls-8" d="M350.81,520.62H248.28c-3.6,0-8.07.73-11.62,0-4-.81-3.3-4.62.23-5.89a8.06,8.06,0,0,1,1.77,0c2.47-.18,5,0,7.5,0H348.35a13.1,13.1,0,0,1,2.17,0c2.79.52,6,5.13-.11,5.95-1.91.25-1.1,3.14.79,2.89,5.33-.72,7.8-7.81,2.76-10.91-1.71-1-3.55-.93-5.45-.93H254.12c-5.68,0-11.61-.49-17.28,0-8.49.74-7.34,11.58.72,11.89,18.66.73,37.5,0,56.17,0h57.08A1.5,1.5,0,0,0,350.81,520.62Z" transform="translate(-204.79 -318.31)"/><polygon class="cls-7" points="75.03 181.19 66.82 203.71 111.06 203.71 103.78 181.19 75.03 181.19"/><path class="cls-8" d="M278.38,499.1l-8.21,22.53a1.51,1.51,0,0,0,1.44,1.9h44.24a1.52,1.52,0,0,0,1.45-1.9L310,499.1a1.53,1.53,0,0,0-1.44-1.1H279.82a1.5,1.5,0,0,0,0,3h28.75l-1.45-1.1,7.29,22.52,1.44-1.89H271.61l1.45,1.89,8.21-22.52C281.93,498.09,279,497.3,278.38,499.1Z" transform="translate(-204.79 -318.31)"/><polygon class="cls-9" points="56.66 99.91 49.13 120.25 51.36 120.25 58.47 99.91 56.66 99.91"/><rect class="cls-7" x="164.27" y="195.61" width="19.93" height="7.72" rx="3.86"/><path class="cls-8" d="M385.13,520.14h-6.5c-1.4,0-2.83.09-4.23,0a9.93,9.93,0,0,1-1.22,0c-2.4-.39-3.56-3.2-1.06-4.37,2.1-1,5.44-.35,7.7-.35,1.34,0,2.74-.1,4.08,0,.35,0,.72-.06,1.07,0,3.17.58,3,4.34-.24,4.78-1.9.25-1.09,3.14.8,2.89,6.7-.91,6.19-10.08-.4-10.67a66.81,66.81,0,0,0-12.41,0,5.34,5.34,0,0,0-.19,10.64c4.06.57,8.49,0,12.6,0A1.5,1.5,0,0,0,385.13,520.14Z" transform="translate(-204.79 -318.31)"/><rect class="cls-10" x="1.71" y="73.27" width="175.77" height="107.92" rx="6"/><path class="cls-8" d="M376.27,498H264.09c-16.54,0-33.32.86-49.84,0-3-.15-5.57-.22-6.25-4.55a37,37,0,0,1,0-5.47V420.69c0-7.32-.81-15.16,0-22.45.7-6.26,6.29-5.16,10.79-5.16H371.54a33.64,33.64,0,0,1,4.49,0c4.22.61,4.58,3.24,4.74,6.39.43,8.21,0,16.56,0,24.78v65.56c0,3.43.54,7.68-4.5,8.19-1.9.2-1.92,3.2,0,3,8.93-.9,7.5-9.84,7.5-16.35V400.49c0-2.5.18-5-1.35-7.16-3-4.31-9.18-3.25-13.74-3.25H263.62c-16.74,0-33.59-.55-50.33,0-7,.24-8.29,5.44-8.29,11.2v69.54c0,7.4-.47,15,0,22.34.45,6.86,5.69,7.84,11.2,7.84H376.27A1.5,1.5,0,0,0,376.27,498Z" transform="translate(-204.79 -318.31)"/><circle class="cls-11" cx="88.55" cy="127.23" r="13.34"/><path class="cls-8" d="M305.18,445.54c-.77,15.11-23.68,15.36-23.68,0s22.91-15.12,23.68,0c.09,1.93,3.09,1.94,3,0-.41-8.06-6.47-14.84-14.84-14.84a14.84,14.84,0,1,0,0,29.68c8.37,0,14.43-6.78,14.84-14.84C308.27,443.61,305.27,443.62,305.18,445.54Z" transform="translate(-204.79 -318.31)"/><rect class="cls-12" x="8.6" y="170.61" width="99.57" height="4.32" rx="2.16"/><rect class="cls-12" x="113.65" y="170.61" width="9.37" height="4.32" rx="2.16"/></svg>