<svg id="Layer_1" data-name="Layer 1" xmlns="http://www.w3.org/2000/svg" viewBox="0 0 94.46 94.46"><defs><style>.cls-1{fill:#f0da5d;}.cls-2{fill:#333431;stroke:#333431;stroke-miterlimit:10;stroke-width:4.15px;}</style></defs><title>2</title><circle class="cls-1" cx="47.23" cy="47.23" r="47.23"/><path class="cls-2" d="M278.05,446.2l3.19-2.27c1.59,2.81,3.59,4,6.12,4,3.77,0,5.65-2.14,5.65-7.52V415.82h4.51v25c0,6.12-2.82,11.06-9.75,11.06A10.34,10.34,0,0,1,278.05,446.2Z" transform="translate(-250.49 -374.23)"/><path class="cls-2" d="M307.19,446.6l2.7-3.09a13.82,13.82,0,0,0,9.76,4.38c4.64,0,7.4-2.31,7.4-5.75,0-3.61-2.57-4.77-5.91-6.23l-5.08-2.24c-3.29-1.41-7.16-3.9-7.16-9.11,0-5.4,4.71-9.39,11.14-9.39a14.61,14.61,0,0,1,10.41,4.38l-2.38,2.9a11.3,11.3,0,0,0-8-3.32c-4,0-6.6,2-6.6,5.16,0,3.41,3.09,4.69,5.86,5.86l5,2.18c4.09,1.76,7.29,4.2,7.29,9.46,0,5.59-4.62,10.06-12.06,10.06A17,17,0,0,1,307.19,446.6Z" transform="translate(-250.49 -374.23)"/></svg>