<svg id="Layer_1" data-name="Layer 1" xmlns="http://www.w3.org/2000/svg" viewBox="0 0 106.27 106.27"><defs><style>.cls-1{fill:#fdfdfd;}.cls-2{fill:#3c7aad;}.cls-3{fill:#fff;}.cls-4{fill:#fed05b;}</style></defs><title>3</title><circle class="cls-1" cx="53.14" cy="53.14" r="53.14"/><path class="cls-2" d="M279.48,436v-8.4s1.26-8.39,9.24-8.39h15.54s8-.42,7.55-8.4V395.69s-.42-8-10.91-7.56c0,0-18.06-2.94-19.32,8v5h15.54v2.94H275.28s-10.5.42-10.08,15.54S270.24,436.42,279.48,436Z" transform="translate(-244.04 -368.08)"/><ellipse class="cls-3" cx="44.05" cy="27.2" rx="3.15" ry="2.94"/><path class="cls-4" d="M314.33,404.09v8.4s-1.26,8.39-9.23,8.39H289.56s-8,.42-7.56,8.4V444.4s.42,8,10.92,7.56c0,0,18.05,2.94,19.31-8v-5H296.7V436h21.83s10.5-.42,10.08-15.54S323.57,403.67,314.33,404.09Z" transform="translate(-244.04 -368.08)"/><ellipse class="cls-3" cx="61.68" cy="76.74" rx="3.15" ry="2.94"/></svg>