<svg id="Layer_1" data-name="Layer 1" xmlns="http://www.w3.org/2000/svg" viewBox="0 0 94.46 94.46"><defs><style>.cls-1{fill:transparent;}.cls-2{fill:#1a80c3;}.cls-3{fill:#1f90d0;}.cls-4{fill:#fcf9f8;}.cls-5{fill:#e4e3e2;opacity:0.1;}.cls-6{fill:#fff;}</style></defs><title>4</title><circle class="cls-1" cx="47.23" cy="47.23" r="47.23"/><polygon class="cls-2" points="23.84 25.84 73.57 25.84 69.13 78 48.91 84.47 27.88 78 23.84 25.84"/><polygon class="cls-3" points="48.5 27.86 48.5 81.64 66.7 76.38 71.15 27.86 48.5 27.86"/><polygon class="cls-4" points="31.12 35.54 31.93 42.42 48.5 42.42 32.33 49.7 33.14 56.17 57 56.17 56.19 65.47 48.91 66.68 40.82 65.06 40.42 59.8 33.54 59.8 34.35 70.72 48.91 74.77 63.06 70.32 64.68 48.89 49.72 48.89 66.3 42.42 66.3 35.54 31.12 35.54"/><polygon class="cls-5" points="48.5 27.86 48.5 81.64 30.31 76.38 25.86 27.86 48.5 27.86"/><polygon class="cls-6" points="41.23 11.69 41.23 15.33 36.37 15.33 36.37 18.96 41.23 18.96 41.23 22.2 32.73 22.2 32.73 11.69 41.23 11.69"/><polygon class="cls-6" points="44.87 11.69 44.87 14.92 47.7 18.96 44.87 18.96 44.87 22.61 53.76 22.61 53.76 18.96 50.93 15.73 53.76 15.73 53.76 11.69 44.87 11.69"/><polygon class="cls-6" points="57 12.09 57 15.33 59.83 19.37 57 19.37 57 23.01 65.89 23.01 65.89 19.37 63.06 16.14 65.89 16.14 65.89 12.09 57 12.09"/></svg>