<svg id="Layer_1" data-name="Layer 1" xmlns="http://www.w3.org/2000/svg" viewBox="0 0 94.46 94.46"><defs><style>.cls-1{fill:transparent;}.cls-2{fill:#eb5b3c;stroke:#eb5b3c;stroke-miterlimit:10;stroke-width:2.83px;}.cls-3{fill:#ef7941;}.cls-4{fill:#fff;}.cls-5{fill:#e4e3e2;opacity:0.1;}.cls-6{fill:#fff;}</style></defs><title>5</title><circle class="cls-1" cx="47.23" cy="47.23" r="47.23"/><polygon class="cls-2" points="23.87 27 73.6 27 69.16 79.17 48.94 85.63 27.91 79.17 23.87 27"/><polygon class="cls-3" points="48.53 29.02 48.53 82.8 66.73 77.55 71.18 29.02 48.53 29.02"/><polygon class="cls-4" points="65.92 36.71 65.52 43.58 38.83 43.58 39.23 50.86 64.71 50.86 62.69 72.29 48.53 76.33 34.38 72.29 33.57 61.37 40.45 61.37 40.45 66.63 48.53 69.06 56.62 67.03 57.43 57.33 33.17 57.33 31.55 36.71 65.92 36.71"/><polygon class="cls-5" points="48.53 29.02 48.53 82.8 30.34 77.55 25.89 29.02 48.53 29.02"/><polygon class="cls-6" points="26.7 12.45 26.7 23.36 29.93 23.36 29.93 19.32 33.57 19.32 33.57 23.36 36.81 23.36 36.81 12.45 33.57 12.45 33.57 16.09 29.93 16.09 29.93 12.45 26.7 12.45"/><polygon class="cls-6" points="38.42 12.45 38.42 16.09 41.66 16.09 41.66 23.36 45.3 23.36 45.3 16.09 48.53 16.09 48.53 12.45 38.42 12.45"/><polygon class="cls-6" points="49.75 12.45 49.75 23.36 53.39 23.36 53.39 18.11 55.81 21.75 58.24 17.7 58.24 23.36 61.88 23.36 61.88 12.45 58.24 12.45 55.81 16.09 53.79 12.45 49.75 12.45"/><polygon class="cls-6" points="63.49 12.45 63.49 23.36 71.99 23.36 71.99 19.73 67.13 19.73 67.13 12.45 63.49 12.45"/></svg>