<svg id="Layer_1" data-name="Layer 1" xmlns="http://www.w3.org/2000/svg" viewBox="0 0 29.56 29.56"><defs><style>.cls-1{fill:#0389bc;}.cls-2{fill:#fff;}</style></defs><title>7</title><rect class="cls-1" width="29.56" height="29.56" rx="3.3"/><path class="cls-2" d="M300,429.79a2.87,2.87,0,1,1-2.89-2.84A2.87,2.87,0,0,1,300,429.79Z" transform="translate(-282.29 -406.09)"/><path class="cls-2" d="M305.3,416.24a13.52,13.52,0,0,0-16.45.14,1.94,1.94,0,0,1-2.44.11h0a1.76,1.76,0,0,1,.54-2.55,16.64,16.64,0,0,1,20.21-.18,1.76,1.76,0,0,1,.58,2.54h0A1.93,1.93,0,0,1,305.3,416.24Z" transform="translate(-282.29 -406.09)"/><path class="cls-2" d="M302.57,420.8a9.66,9.66,0,0,0-10.91.1,2,2,0,0,1-2.45.06h0c-.63-.57-.39-1.85.68-2.6a12.73,12.73,0,0,1,14.4-.12c1.09.72,1.35,2,.74,2.58h0A2,2,0,0,1,302.57,420.8Z" transform="translate(-282.29 -406.09)"/><path class="cls-2" d="M299.6,425.41a5.63,5.63,0,0,0-5.1,0,2.36,2.36,0,0,1-2.51,0h0c-.64-.56-.27-2,1.08-2.71a8.77,8.77,0,0,1,7.92-.07c1.36.69,1.76,2.12,1.12,2.69h0A2.35,2.35,0,0,1,299.6,425.41Z" transform="translate(-282.29 -406.09)"/></svg>