<svg id="Layer_1" data-name="Layer 1" xmlns="http://www.w3.org/2000/svg" viewBox="0 0 47.94 31"><defs><style>.cls-1{fill:#e2e4e3;}.cls-2{fill:#086992;}.cls-3{fill:#03ab81;}.cls-4{fill:#fbba3e;}.cls-5{fill:#ea4a70;}.cls-6{font-size:13.28px;fill:#f6a31a;font-family:CourierNewPS-BoldMT, Courier New;font-weight:700;}</style></defs><title>8</title><rect class="cls-1" width="47.94" height="31" rx="2.07"/><path class="cls-2" d="M321.22,406.7v2.14H273.28V406.7a2.07,2.07,0,0,1,2.07-2.07h43.8A2.07,2.07,0,0,1,321.22,406.7Z" transform="translate(-273.28 -404.63)"/><path class="cls-3" d="M282.75,406.74a1.18,1.18,0,1,1-1.18-1.18A1.18,1.18,0,0,1,282.75,406.74Z" transform="translate(-273.28 -404.63)"/><path class="cls-4" d="M279.67,406.74a1.18,1.18,0,1,1-1.18-1.18A1.18,1.18,0,0,1,279.67,406.74Z" transform="translate(-273.28 -404.63)"/><path class="cls-5" d="M276.51,406.74a1.18,1.18,0,1,1-1.17-1.18A1.17,1.17,0,0,1,276.51,406.74Z" transform="translate(-273.28 -404.63)"/><text class="cls-6" transform="translate(5.78 21.36)">HTML</text></svg>