<svg id="Layer_1" data-name="Layer 1" xmlns="http://www.w3.org/2000/svg" viewBox="0 0 43.28 31.86"><defs><style>.cls-1{fill:#e2e4e3;}.cls-2{fill:#086992;}.cls-3{fill:#03ab81;}.cls-4{fill:#fbba3e;}.cls-5{fill:#ea4a70;}.cls-6{font-size:15.58px;fill:#0389bc;font-family:CourierNewPS-BoldMT, Courier New;font-weight:700;}</style></defs><title>9</title><rect class="cls-1" width="43.28" height="27.99" rx="1.87"/><path class="cls-2" d="M318.61,406.84v1.93H275.33v-1.93A1.87,1.87,0,0,1,277.2,405h39.54A1.86,1.86,0,0,1,318.61,406.84Z" transform="translate(-275.33 -404.97)"/><path class="cls-3" d="M283.88,406.87a1.07,1.07,0,0,1-2.13,0,1.07,1.07,0,1,1,2.13,0Z" transform="translate(-275.33 -404.97)"/><path class="cls-4" d="M281.1,406.87a1.07,1.07,0,0,1-2.13,0,1.07,1.07,0,1,1,2.13,0Z" transform="translate(-275.33 -404.97)"/><path class="cls-5" d="M278.26,406.87a1.07,1.07,0,1,1-1.07-1.07A1.06,1.06,0,0,1,278.26,406.87Z" transform="translate(-275.33 -404.97)"/><text class="cls-6" transform="translate(5.77 20.79)">C++</text></svg>